<?xml version="1.0" encoding="iso-8859-1"?>
<!-- Generator: Adobe Illustrator 19.0.0, SVG Export Plug-In . SVG Version: 6.00 Build 0)  -->
<svg version="1.1" id="Capa_1" xmlns="http://www.w3.org/2000/svg" xmlns:xlink="http://www.w3.org/1999/xlink" x="0px" y="0px"
	 viewBox="0 0 512 512" style="enable-background:new 0 0 512 512;" xml:space="preserve">
<g>
	<polygon style="fill:#FFD15C;" points="76.8,0 55.467,471.467 128,471.467 115.2,0 	"/>
	<polygon style="fill:#FFD15C;" points="156.8,0 429.867,22.4 456.533,395.733 185.6,512 	"/>
</g>
<path style="fill:#4ABAA5;" d="M358.4,286.933c0,0,37.333-58.667,18.133-103.467c-7.467-16-23.467-21.333-38.4-11.733
	c-11.733,7.467-18.133,22.4-16,37.333c-9.6-9.6-23.467-10.667-36.267-2.133C268.8,217.6,262.4,241.067,270.933,259.2
	C294.4,307.2,358.4,286.933,358.4,286.933z"/>
<path style="fill:#FFFFFF;" d="M391.467,346.667c0,0,35.2-59.733,16-102.4c-6.4-14.933-22.4-19.2-35.2-9.6
	C361.6,243.2,355.2,258.133,357.333,272c-8.533-8.533-22.4-9.6-34.133,0c-16,11.733-21.333,35.2-13.867,51.2
	C331.733,370.133,391.467,346.667,391.467,346.667z"/>
<path style="fill:#F3705A;" d="M288,388.267c0,0,60.8-45.867,59.733-101.333c0-19.2-13.867-32-30.933-29.867
	c-13.867,2.133-25.6,14.933-29.867,29.867c-4.267-13.867-17.067-22.4-33.067-19.2c-20.267,3.2-37.333,24.533-36.267,45.867
	C218.667,378.667,288,388.267,288,388.267z"/>
<g>
	<circle style="fill:#415A6B;" cx="262.4" cy="70.4" r="14.933"/>
	<path style="fill:#415A6B;" d="M388.267,70.4c0,6.4-4.267,11.733-9.6,11.733S368,76.8,368,70.4s4.267-11.733,9.6-11.733
		C384,58.667,388.267,64,388.267,70.4z"/>
</g>
<path style="fill:#FFFFFF;" d="M325.333,177.067c-35.2,4.267-67.2-30.933-69.333-80L254.933,70.4c0-3.2,2.133-6.4,5.333-6.4
	c3.2,0,6.4,2.133,6.4,5.333L267.733,96c2.133,41.6,28.8,72.533,57.6,69.333c11.733-1.067,23.467-8.533,32-20.267
	c11.733-14.933,18.133-37.333,17.067-59.733L373.333,70.4c0-3.2,2.133-5.333,4.267-5.333s4.267,2.133,5.333,5.333L384,85.333
	c1.067,25.6-5.333,49.067-18.133,67.2C354.133,166.4,340.267,174.933,325.333,177.067z"/>
<polygon style="fill:#F7B64C;" points="156.8,0 115.2,0 128,471.467 185.6,512 "/>
<polygon style="fill:#EFA245;" points="185.6,512 128,471.467 55.467,471.467 "/>
<g>
</g>
<g>
</g>
<g>
</g>
<g>
</g>
<g>
</g>
<g>
</g>
<g>
</g>
<g>
</g>
<g>
</g>
<g>
</g>
<g>
</g>
<g>
</g>
<g>
</g>
<g>
</g>
<g>
</g>
</svg>
